<svg xmlns="http://www.w3.org/2000/svg" viewBox="0 0 128 128">
  <defs>
    <linearGradient id="sky" x1="0" y1="0" x2="1" y2="1">
      <stop stop-color="#6fe3d0"/>
      <stop offset=".52" stop-color="#8ea8ff"/>
      <stop offset="1" stop-color="#f6a2cf"/>
    </linearGradient>
    <linearGradient id="stage" x1="0" y1="0" x2="0" y2="1">
      <stop stop-color="#fff" stop-opacity=".96"/>
      <stop offset="1" stop-color="#f0f5ff" stop-opacity=".9"/>
    </linearGradient>
  </defs>
  <rect width="128" height="128" rx="30" fill="url(#sky)"/>
  <circle cx="64" cy="48" r="29" fill="#fff" fill-opacity=".19"/>
  <path d="m64 17 5.8 18.4L89 29l-12.2 15.3 19.1 4.1-19.1 4.2L89 68l-19.2-6.4L64 80l-5.8-18.4L39 68l12.2-15.4-19.1-4.2 19.1-4.1L39 29l19.2 6.4z" fill="#fff" fill-opacity=".95"/>
  <path d="M16 86q48-17 96 0v22H16z" fill="url(#stage)"/>
  <path d="M24 96h80M32 105h64" stroke="#8ea8ff" stroke-width="3" stroke-linecap="round" stroke-opacity=".65"/>
  <path d="m64 76 8 14H56z" fill="#f5c66d" stroke="#fff" stroke-width="3" stroke-linejoin="round"/>
  <circle cx="24" cy="31" r="3" fill="#fff"/><circle cx="103" cy="43" r="2.5" fill="#fff"/>
</svg>
